<svg width="42" height="42" viewBox="0 0 42 42" fill="none" xmlns="http://www.w3.org/2000/svg">
<path d="M0.75 21C0.75 9.81623 9.81623 0.75 21 0.75C32.1838 0.75 41.25 9.81623 41.25 21C41.25 32.1838 32.1838 41.25 21 41.25C9.81623 41.25 0.75 32.1838 0.75 21Z" fill="#7E869E" fill-opacity="0.25"/>
<circle cx="21" cy="16.5" r="9" fill="#222222"/>
<path fill-rule="evenodd" clip-rule="evenodd" d="M35.1724 35.3536C35.2277 35.4509 35.2095 35.573 35.1289 35.6506C31.5766 39.075 26.76 41.1969 21.4464 41.249C21.3482 41.25 21.2322 41.25 21.0001 41.25C20.7679 41.25 20.6519 41.25 20.5537 41.249C15.2402 41.1969 10.4237 39.0751 6.87137 35.6508C6.7908 35.5731 6.77264 35.4511 6.82785 35.3537C9.38157 30.8524 14.7682 27.75 21.0002 27.75C27.2321 27.75 32.6187 30.8524 35.1724 35.3536Z" fill="#222222"/>
</svg>
